# xmcd CD database file
#
# Track frame offsets:
#	150
#	13516
#	29591
#	41294
#	56892
#	63891
#	74444
#	98780
#	110590
#	119721
#	124997
#	142460
#	154409
#	165178
#	182223
#	196506
#	206340
#	221131
#	240303
#	252254
#	258920
#	261621
#	272707
#	284727
#	295414
#	309154
#	317693
#
# Disc length: 4426 seconds
#
# Revision: 0
# Processed by: cddbd v1.5.2PL0 Copyright (c) Steve Scherf et al.
# Submitted via: CDex 1.70beta2
#
DISCID=a711481b
DTITLE=Liederkiste - Liederkiste 3/4: Religion in der Grundschule
DYEAR=2004
DGENRE=Schule
TTITLE0=Alles muss klein beginnen
TTITLE1=Aufstehn, aufeinander zugehn
TTITLE2=Du hast mein Klagen in Tanzen verwandelt
TTITLE3=Ejli, ejli, lomo asavtoni
TTITLE4=Fröhlich sein, Gutes tun
TTITLE5=Gebetsruf des Muezzins
TTITLE6=Gebote
TTITLE7=Geist wie Feuer
TTITLE8=Gott kann man nicht malen
TTITLE9=Gottes Wort ist wie Licht in der Nacht
TTITLE10=Gut. dass wir einander haben
TTITLE11=Halleluja (He is not here anymore)
TTITLE12=Hast du heute schon gelacht?
TTITLE13=Höre, Israel
TTITLE14=Ich bin Ich
TTITLE15=Kolo von Srem
TTITLE16=Komm, bau ein Haus
TTITLE17=Lena war krank
TTITLE18=Sabbath prayer
TTITLE19=Schalom chaverim
TTITLE20=Shofar
TTITLE21=Singt Gott, jubelt ihm
TTITLE22=Steh auf, bewege dich
TTITLE23=Sh´ma Israel
TTITLE24=Sufi-Meditation
TTITLE25=Sure 1 (Al-Fatiha)
TTITLE26=Trommle, mein Herz, für den Frieden
EXTD=YEAR: 2004
EXTT0=
EXTT1=
EXTT2=
EXTT3=
EXTT4=
EXTT5=
EXTT6=
EXTT7=
EXTT8=
EXTT9=
EXTT10=
EXTT11=
EXTT12=
EXTT13=
EXTT14=
EXTT15=
EXTT16=
EXTT17=
EXTT18=
EXTT19=
EXTT20=
EXTT21=
EXTT22=
EXTT23=
EXTT24=
EXTT25=
EXTT26=
PLAYORDER=
